<svg id="Capa_1" enable-background="new 0 0 512 512" height="512" viewBox="0 0 512 512" width="512" xmlns="http://www.w3.org/2000/svg"><g><path d="m308.07 497h-168.682c13.156-64.38 14.905-141.884 13.959-196.72-1.07-62.114-5.723-109.385-5.77-109.855-.411-4.121-4.086-7.131-8.206-6.719-4.122.41-7.131 4.085-6.72 8.206.046.466 4.646 47.235 5.7 108.763 1.667 97.169-6.549 159.715-14.279 196.325h-43.457c-1.421 0-2.303-.775-2.702-1.237-.396-.457-1.03-1.434-.827-2.823 12.265-83.933 2.397-156.554-5.531-214.905-.558-4.105-4.338-6.983-8.441-6.422-4.104.558-6.979 4.337-6.422 8.441 7.802 57.418 17.511 128.877 5.553 210.717-.779 5.329.796 10.725 4.321 14.803 3.53 4.084 8.651 6.427 14.05 6.427h227.455c4.143 0 7.5-3.357 7.5-7.5s-3.358-7.501-7.501-7.501z"/><path d="m442.46 68.209c5.48 0 10.961-2.086 15.134-6.259l18.897-18.897c8.344-8.345 8.344-21.921 0-30.266l-6.52-6.52c-8.346-8.344-21.92-8.344-30.266 0l-18.897 18.898c-4.043 4.042-6.269 9.416-6.269 15.133 0 4.739 1.55 9.23 4.377 12.936l-18.311 18.311c-2.926-.353-5.883-.551-8.865-.551h-68.678c-3.291 0-5.968-2.677-5.968-5.968v-47.575c.001-9.623-7.827-17.451-17.45-17.451h-87.288c-9.623 0-17.452 7.828-17.452 17.451v47.575c0 3.291-2.677 5.968-5.968 5.968h-68.678c-2.982 0-5.939.198-8.865.551l-18.312-18.312c6.375-8.382 5.76-20.418-1.889-28.068l-18.897-18.897c-8.347-8.344-21.922-8.342-30.267 0l-6.52 6.521c-8.343 8.344-8.343 21.92 0 30.265l18.898 18.898c4.043 4.042 9.417 6.268 15.133 6.268 4.74 0 9.231-1.55 12.936-4.377l11.867 11.867c-8.795 3.307-16.952 8.29-24.009 14.803-13.619 12.567-21.979 29.678-23.542 48.18-3.157 37.411 1.365 77.087 5.852 111.338.538 4.108 4.315 6.995 8.41 6.463 4.107-.538 7.001-4.304 6.463-8.411-4.386-33.477-8.81-72.201-5.777-108.128 1.245-14.756 7.91-28.399 18.767-38.418 7.373-6.802 16.247-11.523 25.806-13.859l41.388 41.388c2.931 2.929 7.678 2.928 10.607 0 2.929-2.93 2.929-7.678 0-10.607l-32.463-32.463h63.094c11.562 0 20.968-9.406 20.968-20.968v-47.577c0-1.352 1.1-2.451 2.452-2.451h87.288c1.352 0 2.451 1.1 2.451 2.451v47.575c0 11.562 9.406 20.968 20.968 20.968h63.094l-32.463 32.463c-2.929 2.93-2.929 7.678 0 10.607 2.931 2.929 7.678 2.928 10.607 0l41.388-41.388c9.559 2.336 18.433 7.057 25.805 13.859 10.857 10.019 17.522 23.662 18.768 38.418 3.444 40.796-2.536 84.662-8.867 131.104-8.801 64.561-18.775 137.734-6.479 221.882.203 1.389-.431 2.365-.827 2.822-.399.462-1.281 1.237-2.702 1.237h-43.463c-13.446-63.55-15.217-141.427-14.275-196.325 1.055-61.527 5.654-108.297 5.7-108.763.411-4.121-2.598-7.796-6.72-8.206-4.125-.423-7.795 2.598-8.206 6.719-.047.471-4.699 47.741-5.77 109.855-1.654 95.903 6.245 158.888 13.951 196.72h-34.546c-4.143 0-7.5 3.357-7.5 7.5s3.357 7.5 7.5 7.5h93.328c5.398 0 10.52-2.343 14.05-6.427 3.525-4.078 5.101-9.474 4.321-14.802-11.989-82.051-2.166-154.11 6.501-217.687 6.445-47.285 12.534-91.948 8.951-134.393-1.562-18.502-9.923-35.612-23.542-48.18-7.057-6.512-15.215-11.496-24.01-14.804l11.869-11.869c3.808 2.902 8.365 4.373 12.932 4.373zm-368.395-16.864c-1.209 1.209-2.815 1.874-4.525 1.874-1.709 0-3.316-.666-4.525-1.875l-18.899-18.898c-2.495-2.496-2.495-6.557 0-9.052l6.52-6.52c1.247-1.248 2.887-1.872 4.526-1.872s3.278.624 4.525 1.872l18.897 18.897c2.496 2.495 2.496 6.557 0 9.052zm357.35-15.572 18.898-18.898c1.247-1.248 2.887-1.872 4.525-1.872s3.278.624 4.525 1.872l6.52 6.52c2.496 2.495 2.496 6.556 0 9.052l-18.897 18.897c-2.496 2.497-6.56 2.495-9.052 0l-6.52-6.52c-1.209-1.209-1.875-2.816-1.875-4.525.001-1.71.666-3.317 1.876-4.526z"/><path d="m345.694 111.252c-2.93-2.928-7.677-2.929-10.606.001-10.039 10.04-10.039 26.377.001 36.418 10.039 10.039 26.378 10.039 36.417 0 2.93-2.929 2.93-7.678.001-10.606-2.93-2.929-7.679-2.93-10.606-.001-4.192 4.191-11.013 4.191-15.205.001-4.191-4.192-4.191-11.014 0-15.206 2.928-2.929 2.928-7.678-.002-10.607z"/><path d="m309.376 268.127c-11.801 0-21.401 9.601-21.401 21.4v26.726c0 10.818 8.076 19.764 18.511 21.183v92.241c0 4.143 3.357 7.5 7.5 7.5s7.5-3.357 7.5-7.5v-92.241c10.435-1.418 18.511-10.365 18.511-21.183v-26.726c0-11.8-9.601-21.4-21.4-21.4zm15.62 21.4v26.726c0 3.529-2.871 6.401-6.4 6.401h-9.22c-3.529 0-6.401-2.872-6.401-6.401v-26.726c0-3.529 2.872-6.4 6.401-6.4h9.22c3.529 0 6.4 2.871 6.4 6.4z"/><path d="m324.736 437.738c0 5.929-4.823 10.752-10.751 10.752s-10.751-4.823-10.751-10.752c0-4.143-3.357-7.5-7.5-7.5s-7.5 3.357-7.5 7.5c0 14.199 11.552 25.752 25.751 25.752s25.751-11.553 25.751-25.752c0-4.143-3.357-7.5-7.5-7.5s-7.5 3.358-7.5 7.5z"/><path d="m282.01 101.432c0-11.8-9.601-21.4-21.4-21.4h-9.22c-11.801 0-21.401 9.601-21.401 21.4v26.726c0 10.818 8.076 19.764 18.511 21.183v62.24c0 4.143 3.357 7.5 7.5 7.5s7.5-3.357 7.5-7.5v-62.24c10.435-1.418 18.511-10.365 18.511-21.183v-26.726zm-15 26.725c0 3.529-2.871 6.401-6.4 6.401h-9.22c-3.529 0-6.401-2.872-6.401-6.401v-26.726c0-3.529 2.872-6.4 6.401-6.4h9.22c3.529 0 6.4 2.871 6.4 6.4z"/><path d="m266.752 219.643c0 5.928-4.823 10.751-10.752 10.751-5.928 0-10.751-4.823-10.751-10.751 0-4.143-3.357-7.5-7.5-7.5s-7.5 3.357-7.5 7.5c0 14.199 11.552 25.751 25.751 25.751s25.752-11.552 25.752-25.751c0-4.143-3.357-7.5-7.5-7.5s-7.5 3.357-7.5 7.5z"/><path d="m224.025 289.527c0-11.8-9.601-21.4-21.4-21.4h-9.22c-11.801 0-21.401 9.601-21.401 21.4v26.726c0 10.818 8.076 19.764 18.511 21.183v92.241c0 4.143 3.357 7.5 7.5 7.5s7.5-3.357 7.5-7.5v-92.241c10.435-1.418 18.511-10.365 18.511-21.183v-26.726zm-15 26.726c0 3.529-2.871 6.401-6.4 6.401h-9.22c-3.529 0-6.401-2.872-6.401-6.401v-26.726c0-3.529 2.872-6.4 6.401-6.4h9.22c3.529 0 6.4 2.871 6.4 6.4z"/><path d="m208.766 437.738c0 5.929-4.823 10.752-10.752 10.752-5.928 0-10.751-4.823-10.751-10.752 0-4.143-3.357-7.5-7.5-7.5s-7.5 3.357-7.5 7.5c0 14.199 11.552 25.752 25.751 25.752s25.752-11.553 25.752-25.752c0-4.143-3.357-7.5-7.5-7.5s-7.5 3.358-7.5 7.5z"/><path d="m151.101 137.063c-2.93-2.928-7.678-2.928-10.607 0-2.929 2.93-2.929 7.678 0 10.607 10.041 10.039 26.377 10.039 36.418 0 10.04-10.041 10.04-26.378 0-36.419-2.93-2.928-7.678-2.928-10.607 0-2.929 2.93-2.929 7.678 0 10.607 4.192 4.191 4.192 11.013 0 15.204-4.192 4.195-11.012 4.195-15.204.001z"/></g></svg>