<svg enable-background="new 0 0 550 550" height="512" viewBox="0 0 550 550" width="512" xmlns="http://www.w3.org/2000/svg"><g id="_x36_894_-_Consultation"><g id="XMLID_93_"><g id="XMLID_375_"><g id="XMLID_374_"><path d="m146 518h-120c-3.313 0-6-2.687-6-6v-210c0-28.907 18.497-54.192 46.027-62.92 3.158-1.001 6.531.748 7.533 3.907 1.001 3.159-.748 6.531-3.907 7.533-22.522 7.139-37.653 27.827-37.653 51.48v204h108v-102c0-3.313 2.687-6 6-6s6 2.687 6 6v108c0 3.313-2.687 6-6 6z"/></g><g id="XMLID_372_"><path d="m98 260c-33.084 0-60-26.916-60-60s26.916-60 60-60 60 26.916 60 60-26.916 60-60 60zm0-108c-26.467 0-48 21.533-48 48s21.533 48 48 48 48-21.533 48-48-21.533-48-48-48z"/></g><g id="XMLID_373_"><path d="m230 410h-108c-2.482 0-4.709-1.529-5.6-3.846l-30-78c-1.189-3.093.354-6.564 3.446-7.754 3.093-1.189 6.565.354 7.754 3.445l28.521 74.155h103.879c9.925 0 18-8.075 18-18s-8.075-18-18-18h-72c-2.812 0-5.247-1.953-5.857-4.698l-12-54c-.095-.428-.143-.864-.143-1.302 0-14.419-5.616-27.981-15.814-38.189-3.096-3.096-6.579-5.819-10.351-8.091-2.839-1.71-3.754-5.397-2.044-8.235s5.397-3.754 8.235-2.044c4.606 2.774 8.861 6.101 12.647 9.887 12.305 12.317 19.151 28.629 19.324 45.999l10.816 48.673h67.187c16.542 0 30 13.458 30 30s-13.458 30-30 30z"/></g></g><g id="XMLID_377_"><g id="XMLID_380_"><path d="m524 518h-120c-3.313 0-6-2.687-6-6v-108c0-3.313 2.687-6 6-6s6 2.687 6 6v102h108v-204c0-23.653-15.132-44.341-37.653-51.48-3.158-1.001-4.907-4.374-3.906-7.533 1.002-3.16 4.375-4.905 7.533-3.907 27.529 8.728 46.026 34.013 46.026 62.92v210c0 3.313-2.687 6-6 6z"/></g><g id="XMLID_379_"><path d="m452 260c-33.084 0-60-26.916-60-60s26.916-60 60-60 60 26.916 60 60-26.916 60-60 60zm0-108c-26.467 0-48 21.533-48 48s21.533 48 48 48 48-21.533 48-48-21.533-48-48-48z"/></g><g id="XMLID_378_"><path d="m428 410h-108c-16.542 0-30-13.458-30-30s13.458-30 30-30h67.187l10.816-48.674c.173-17.371 7.02-33.683 19.323-45.997 3.787-3.788 8.042-7.114 12.648-9.889 2.841-1.71 6.526-.794 8.235 2.044 1.71 2.839.795 6.526-2.044 8.235-3.772 2.272-7.256 4.995-10.353 8.092-10.196 10.207-15.812 23.77-15.812 38.189 0 .438-.048.874-.143 1.302l-12 54c-.61 2.745-3.045 4.698-5.857 4.698h-72c-9.925 0-18 8.075-18 18s8.075 18 18 18h103.879l28.521-74.154c1.189-3.093 4.661-4.635 7.754-3.445s4.636 4.661 3.445 7.754l-30 78c-.89 2.316-3.117 3.845-5.599 3.845z"/></g></g><g id="XMLID_94_"><path d="m404 518h-258c-3.313 0-6-2.687-6-6v-108c0-3.313 2.687-6 6-6h258c3.313 0 6 2.687 6 6v108c0 3.313-2.687 6-6 6zm-252-12h246v-96h-246z"/></g><g id="XMLID_381_"><path d="m404 452h-258c-3.313 0-6-2.687-6-6s2.687-6 6-6h258c3.313 0 6 2.687 6 6s-2.687 6-6 6z"/></g><g id="XMLID_385_"><path d="m293.001 212c-.273 0-.548-.019-.824-.057-2.325-.322-4.249-1.971-4.924-4.219l-9.517-31.724h-95.736c-3.313 0-6-2.687-6-6v-132c0-3.313 2.687-6 6-6h186c3.313 0 6 2.687 6 6v132c0 3.313-2.687 6-6 6h-48.797l-21.142 33.221c-1.11 1.746-3.028 2.779-5.06 2.779zm-105.001-48h94.2c2.649 0 4.985 1.738 5.747 4.276l7.031 23.439 15.869-24.936c1.101-1.731 3.01-2.779 5.062-2.779h46.091v-120h-174z"/></g><g id="XMLID_386_"><path d="m284 146h-24c-3.313 0-6-2.687-6-6v-18h-18c-3.313 0-6-2.687-6-6v-24c0-3.313 2.687-6 6-6h18v-18c0-3.313 2.687-6 6-6h24c3.313 0 6 2.687 6 6v18h18c3.313 0 6 2.687 6 6v24c0 3.313-2.687 6-6 6h-18v18c0 3.313-2.687 6-6 6zm-18-12h12v-18c0-3.313 2.687-6 6-6h18v-12h-18c-3.313 0-6-2.687-6-6v-18h-12v18c0 3.313-2.687 6-6 6h-18v12h18c3.313 0 6 2.687 6 6z"/></g></g></g></svg>