<svg id="Layer_1" enable-background="new 0 0 100 100" viewBox="0 0 100 100" xmlns="http://www.w3.org/2000/svg"><g><path d="m58.692 60.552c-.449 0-.814.474-.814 1.058s.364 1.058.814 1.058c.449 0 .814-.474.814-1.058s-.364-1.058-.814-1.058z"/><path d="m89.285 61.54h-6.36c.006-.231.009-.457.01-.666.001-.251.001-.479.014-.663.001-.01-.004-.019-.004-.029s.005-.019.005-.029c-.042-1.95-.454-11.995-4.447-18.265-.646-1.014-1.848-2.901-4.136-4.647-1.675-1.278-3.577-2.214-5.653-2.783-.002 0-.004 0-.006 0-.013-.003-.026-.003-.038-.006-.007-.001-.012-.006-.019-.007l-3.2-.547c-.018-.003-.035.003-.053.002-.02-.002-.037-.012-.057-.012-.012-.001-.023-.007-.035-.007-1.11 0-2.186-.715-3.017-1.983 2.719-1.604 4.601-4.965 4.601-8.854 0-.138-.018-.269-.022-.404.321-.011.612-.032.831-.06.007-.001.018-.002.025-.002.042-.005.077-.027.116-.039.04-.013.082-.02.117-.04.038-.021.067-.053.1-.082.031-.026.065-.048.091-.08.027-.034.042-.074.062-.113.019-.036.042-.069.054-.108.013-.043.011-.089.015-.135.003-.038.016-.073.012-.112-.001-.007-.002-.014-.003-.022 0-.001 0-.002 0-.003s-.001-.002-.001-.003c-.528-5.773-4.64-10.123-9.579-10.123-1.4 0-2.728.362-3.93.996-3.019-2.37-5.27-3.137-6.85-2.31-1.721.898-1.862 3.191-2.074 6.661-.058.947-.121 1.989-.224 3.119-.387 4.264-1.241 8.62-2.533 12.947-.07.236-.003.492.176.662.124.118.286.18.451.18.073 0 .147-.012.219-.038 1.992-.706 3.808-1.887 5.251-3.416.872-.924 1.601-1.991 2.179-3.131.796 1.935 2.106 3.508 3.701 4.473-.831 1.29-1.914 2.019-3.032 2.019-.031 0-.057.013-.087.017-.01.001-.02-.003-.031-.001l-3.172.547c-.007.001-.012.006-.018.007-.013.002-.025.003-.037.006-.002 0-.004 0-.006 0-2.076.569-3.977 1.505-5.653 2.783-2.288 1.746-3.49 3.633-4.136 4.647-3.883 6.096-4.385 15.52-4.447 18.264 0 .01.005.019.005.029s-.005.019-.004.029c.013.184.013.412.014.662.001.209.003.436.01.666h-5.063l.575-1.943c.002-.005.007-.007.009-.012l.073-.253c.359-1.396.178-2.852-.512-4.098-1.807-3.269-5.938-4.459-9.216-2.649-2.062 1.139-3.546 3.109-4.063 5.367l-.022.074h.002l-5.713 19.886c-.001.002 0 .004-.001.007-.768 2.167-.65 4.639.545 6.808 1.697 3.067 4.795 5.029 8.268 5.246.019.002.038.001.057.003.223.016.446.028.669.028s.446-.012.667-.029h68.53c.362 0 .655-.293.655-.655v-27.121c0-.362-.293-.655-.655-.655zm-11.886-18.947c3.806 5.975 4.201 15.7 4.242 17.589-.011.198-.014.427-.015.687-.003.777-.008 2.078-.451 2.491-.072.067-.193.152-.496.136l-3.531-.235c-.197-.013-.377-.102-.506-.251-.129-.148-.193-.338-.18-.535l.141-2.117c.013-.196.101-.375.249-.505s.336-.198.536-.182l.261.017c.062.019.124.039.193.039.034 0 .064-.014.097-.02l1.388.092c.357.019.673-.249.697-.61s-.249-.673-.61-.697l-.937-.062c-.102-3.676-1.066-7.265-2.823-10.417-1.369-2.441-3.174-4.566-5.353-6.334l-.934-5.635c1.525.529 2.941 1.271 4.208 2.238 2.102 1.605 3.222 3.365 3.824 4.311zm-18.707 1.508c4.028 0 7.306-3.277 7.306-7.306v-1.476l1.975.338 1.827 11.018c.069.45.153 1.62-.54 2.784-.712 1.196-1.795 1.667-2.296 1.833h-16.514c-.501-.165-1.584-.636-2.296-1.833-.693-1.164-.609-2.335-.54-2.784l.757-4.567c.001-.007.003-.013.003-.02l1.066-6.431 1.947-.336v1.475c0 4.028 3.276 7.305 7.305 7.305zm.347 29.431c-.062-.013-.123-.028-.188-.025l-.095.008-12.93-7.664c.691.211 1.371.395 2.04.555.026.017.044.041.073.054.091.043.185.063.28.063.024 0 .044-.017.068-.019 1.954.437 3.832.679 5.651.679h9.964c1.694 0 3.436-.204 5.243-.581.014.001.026.012.041.012.093 0 .187-.02.276-.061.009-.004.015-.013.023-.017.791-.175 1.591-.375 2.413-.623zm-10.09-10.683c-.216.461-.439.923-.672 1.397-.132.268-.264.544-.397.818-1.038-.258-2.094-.557-3.194-.945-.982-.347-1.873-.516-2.695-.574.124-.215.203-.452.243-.696zm17.841-.445c.01.029.02.055.034.082.333.777.698 1.536 1.074 2.304.106.218.214.446.321.668-1.484.273-2.919.414-4.318.414h-9.964c-1.533 0-3.111-.174-4.75-.503.088-.181.177-.366.265-.545.389-.791.766-1.572 1.109-2.372.001-.001.001-.003.002-.004.85-1.989 1.457-4.116 1.294-6.93-.042-.91-.221-1.873-.534-2.916h14.727c-.312 1.041-.491 2.003-.533 2.909-.161 2.802.435 4.918 1.273 6.893zm2.74 2.761c-.152-.318-.305-.639-.457-.949-.227-.464-.444-.916-.654-1.366h6.759c.042.264.135.515.276.743-.714.082-1.47.233-2.298.526-1.252.443-2.451.772-3.626 1.046zm6.455-6.294c-.409.361-.655.859-.691 1.402l-.084 1.267h-7.361c-.704-1.745-1.161-3.572-1.024-5.961.043-.922.262-1.957.631-3.07.692-.243 2.038-.88 2.93-2.38.877-1.473.821-2.92.708-3.652 0-.001-.001-.002-.001-.004 0-.001 0-.002 0-.004l-.457-2.758c1.534 1.444 2.838 3.096 3.873 4.942 1.64 2.94 2.545 6.289 2.655 9.722-.433.038-.846.203-1.179.496zm-29.664-12.402v.004c0 .001-.001.002-.001.004-.113.732-.169 2.179.708 3.652.871 1.464 2.177 2.108 2.883 2.364.378 1.131.593 2.149.638 3.093.137 2.382-.321 4.208-1.027 5.954h-7.319l-.084-1.267c-.036-.544-.281-1.042-.691-1.402-.331-.292-.739-.453-1.171-.493.109-3.451 1.013-6.799 2.654-9.723 1.034-1.845 2.335-3.495 3.867-4.938zm-4.77 18.37 14.942 8.857-6.02.483c-1.632.13-2.909 1.515-2.909 3.152 0 .122.02.239.033.358l-7.919-1.56c-1.972-.388-3.58-1.756-4.3-3.658-.668-1.762-.416-3.602.689-5.048.265-.347.567-.654.896-.914 1.094-.86 2.547-1.712 4.588-1.67zm7.322 12.491c0-.959.748-1.77 1.705-1.846l7.671-.616v4.963l-7.681-.654c-.966-.083-1.695-.877-1.695-1.847zm10.685-2.584 16.74-9.922c2.03-.043 3.486.825 4.578 1.684.329.259.629.565.893.91 1.104 1.446 1.352 3.285.683 5.046-.723 1.903-2.333 3.269-4.307 3.655l-18.587 3.629zm7.349-53.416c-1.213.056-3.196-.114-4.661-1.579-.641-.631-1.111-1.43-1.398-2.376-.007-.023-.024-.039-.033-.061-.018-.042-.038-.081-.064-.118-.023-.033-.048-.062-.077-.09-.031-.031-.063-.057-.1-.082-.035-.023-.072-.04-.111-.056-.023-.01-.041-.027-.066-.034-.019-.005-.037-.001-.056-.004-.041-.008-.08-.009-.122-.009-.048 0-.094.003-.141.013-.015.003-.031 0-.046.004-.021.006-.035.022-.055.03-.047.019-.089.041-.13.07-.031.022-.057.046-.083.072-.031.032-.059.064-.083.102-.024.037-.042.076-.059.117-.009.022-.025.038-.031.062-.253.912-.808 2.252-2.021 3.451-2.395 2.382-5.655 2.414-7.174 2.272 0-.023-.003-.045-.003-.068 0-5.523 3.733-10.016 8.32-10.016 4.079-.001 7.504 3.525 8.194 8.3zm-18.658 8.292c-1.165 1.234-2.427 2.043-3.511 2.568 1.106-3.976 1.845-7.968 2.202-11.885.104-1.145.169-2.199.228-3.158.184-3.025.307-5.024 1.372-5.58.987-.515 2.772.164 5.067 1.893-2.712 2.006-4.524 5.547-4.524 9.585 0 .247.003.493.036.74.002.014.01.025.012.038.007.037.021.07.034.105.016.043.033.084.058.122.019.029.041.054.064.079.031.035.063.066.101.093.028.02.056.037.088.052.043.022.087.037.135.049.021.005.037.018.059.021.225.034.559.072.957.097.041.348.096.691.167 1.026-.555 1.536-1.429 2.971-2.545 4.155zm3.696-5.17c1.902-.081 4.483-.627 6.548-2.681.83-.821 1.375-1.688 1.761-2.489.298.518.653.988 1.07 1.399 1.299 1.299 2.898 1.772 4.235 1.914.007.15.024.296.024.45 0 3.675-1.875 6.806-4.494 8.014-.006.003-.013.002-.019.006-.003.002-.005.005-.008.007-.734.334-1.522.525-2.347.525-3.356-.001-6.226-3.088-6.77-7.145zm4.313 7.985c.779.3 1.603.469 2.456.469.834 0 1.639-.153 2.398-.434.946 1.507 2.206 2.45 3.577 2.668v1.656c0 3.307-2.689 5.996-5.997 5.996-3.306 0-5.995-2.689-5.995-5.996v-1.659c1.368-.228 2.622-1.184 3.561-2.7zm-16.244 10.155c.602-.945 1.723-2.705 3.826-4.309 1.267-.967 2.683-1.709 4.208-2.238l-.935 5.641c-2.176 1.767-3.979 3.89-5.347 6.328-1.756 3.134-2.72 6.723-2.822 10.417l-.945.063c-.361.024-.634.336-.61.697s.339.631.697.61l1.393-.093c.034.005.064.02.099.02.07 0 .134-.02.197-.04l.25-.017c.193-.016.387.052.536.182.148.13.237.309.249.506l.141 2.117c.013.196-.051.386-.18.534-.129.149-.309.239-.506.251l-3.531.235c-.304.022-.422-.068-.496-.136-.442-.413-.449-1.714-.451-2.492-.001-.26-.004-.488-.015-.686.042-1.892.445-11.629 4.242-17.59zm-19.025 11.138c2.642-1.459 5.98-.5 7.435 2.137.525.949.663 2.058.396 3.106-.001.002-.002.004-.003.006l-5.14 17.351c-.041-.085-.064-.174-.11-.258-1.81-3.271-5.945-4.464-9.218-2.653-.523.288-1.001.628-1.435 1.005l4.637-16.111c.003-.011 0-.022.003-.032h.004c.444-1.932 1.695-3.591 3.431-4.551zm-8.748 30.359c-1.867-3.388-.638-7.659 2.742-9.522 2.642-1.46 5.979-.5 7.439 2.14 1.133 2.051.385 4.642-1.67 5.777-1.572.872-3.563.299-4.439-1.277-.662-1.201-.225-2.717.973-3.378.893-.488 2.028-.163 2.532.73.178.315.578.421.893.248.315-.178.426-.577.248-.893-.854-1.514-2.785-2.066-4.303-1.233-1.833 1.011-2.5 3.325-1.489 5.16.592 1.065 1.565 1.839 2.742 2.178 1.182.34 2.415.201 3.479-.39 1.738-.96 2.746-2.721 2.848-4.57l4.802-16.209h5.585c.116.569.327 1.098.724 1.468.347.323.798.49 1.312.49.054 0 .109-.002.164-.005l.335-.022c-.364.23-.706.466-1.001.698-.418.328-.798.714-1.129 1.148-1.385 1.813-1.703 4.112-.873 6.307.882 2.329 2.852 4.004 5.272 4.48l8.703 1.714c.518.75 1.348 1.269 2.329 1.353l8.391.715c.018.002.037.003.055.003.042 0 .084-.004.125-.012l19.367-3.782c2.422-.473 4.395-2.146 5.28-4.475.834-2.193.518-4.492-.866-6.305-.33-.433-.708-.818-1.124-1.145-.282-.222-.596-.451-.941-.671h.01c.515 0 .967-.168 1.312-.49.397-.37.608-.899.724-1.468h5.839v25.812h-69.18c-3.038-.195-5.732-1.904-7.21-4.574z"/><path d="m13.49 29.378c1.996 1.845 5.136 2.902 8.613 2.902h.001c3.476 0 6.616-1.057 8.612-2.9 1.216-1.122 2.16-2.663 2.729-4.456.467-1.475.697-3.135.703-5.074.001-.36-.289-.654-.648-.657-2.649-.024-4.896.464-6.758 1.41.103-.546.159-1.09.159-1.625 0-4.808-4.179-8.648-4.357-8.81-.251-.225-.629-.225-.88 0-.178.161-4.357 4.002-4.357 8.81 0 .535.056 1.078.159 1.625-1.856-.947-4.09-1.436-6.758-1.409-.359.003-.65.297-.648.656.005 1.937.234 3.597.702 5.074.569 1.793 1.513 3.333 2.728 4.454zm8.615-17.799c1.024 1.081 3.487 4.03 3.487 7.4 0 .86-.167 1.749-.48 2.643-1.315 1.021-2.359 2.362-3.006 3.885-.65-1.523-1.695-2.861-3.008-3.882-.314-.897-.481-1.787-.481-2.646 0-3.37 2.463-6.319 3.488-7.4zm-4.069 10.863c1.811 1.293 3.059 3.295 3.425 5.492.052.316.326.547.646.547h.001c.32-.001.593-.233.645-.549.359-2.186 1.597-4.182 3.395-5.474 1.709-1.228 3.953-1.883 6.68-1.95-.05 1.521-.257 2.842-.63 4.02-.5 1.576-1.32 2.921-2.368 3.888-1.758 1.623-4.573 2.553-7.724 2.553 0 0 0 0-.001 0-3.151 0-5.967-.931-7.726-2.555-1.047-.966-1.866-2.311-2.367-3.887-.373-1.18-.581-2.501-.629-4.02 2.712.068 4.949.718 6.653 1.935z"/></g></svg>