<svg id="Layer_1" enable-background="new 0 0 512 512" height="512" viewBox="0 0 512 512" width="512" xmlns="http://www.w3.org/2000/svg"><path d="m126.35 471.397-1.014 8.603c-.046.388-.068.779-.068 1.17 0 17 13.83 30.83 30.83 30.83h199.805c17 0 30.83-13.83 30.83-30.83 0-.391-.022-.782-.068-1.17l-1.014-8.603c34.563-12.71 65.595-36.039 88.041-66.353 25.061-33.847 38.308-73.899 38.308-115.828v-115.065c0-2.653-1.055-5.198-2.932-7.073-1.875-1.874-4.417-2.927-7.068-2.927-.002 0-.005 0-.007 0l-113.422.075 74.96-74.96c1.238.103 2.487.169 3.751.169 24.657 0 44.718-20.06 44.718-44.718s-20.061-44.717-44.718-44.717c-22.967 0-41.938 17.407-44.432 39.72l-142.77 115.798c8.9-12.218 14.472-26.552 15.476-41.186l4.351-63.491c.197-2.883-.862-5.711-2.905-7.755-2.044-2.043-4.878-3.107-7.755-2.905l-62.901 4.311c-31.208 2.139-59.163 23.872-70.841 52.222-11.679-28.35-39.634-50.084-70.841-52.222l-62.902-4.311c-2.888-.199-5.711.862-7.755 2.905-2.044 2.044-3.103 4.872-2.905 7.755l4.352 63.491c1.253 18.296 9.667 36.14 22.798 49.955l-28.204-.136c-.016 0-.031 0-.048 0-2.643 0-5.18 1.046-7.054 2.912-1.885 1.877-2.946 4.428-2.946 7.088v115.065c0 41.928 13.247 81.981 38.309 115.828 22.446 30.314 53.477 53.643 88.041 66.353zm229.552 20.603h-199.804c-5.807 0-10.561-4.593-10.819-10.337l.838-7.113h219.767l.838 7.113c-.259 5.744-5.013 10.337-10.82 10.337zm4.365-327.755-59.243.039 125.306-101.633c3.464 7.88 9.133 14.578 16.227 19.304zm107.015-144.245c13.63 0 24.718 11.088 24.718 24.718s-11.088 24.718-24.718 24.718-24.718-11.088-24.718-24.718 11.088-24.718 24.718-24.718zm-239.569 44.445 51.457-3.526-3.566 52.045c-1.41 20.561-15.038 40.457-34.705 50.679-.268.139-.537.277-.807.412-.165.083-.318.179-.476.27l-72.703.048 2.92-42.596c1.992-29.063 28.497-55.318 57.88-57.332zm-195.874-3.526 51.458 3.526c29.382 2.014 55.888 28.269 57.88 57.332l2.92 42.611-72.773.048c-.425-.318-.872-.615-1.357-.869-19.591-10.252-33.156-30.115-34.561-50.603zm37.557 123.519h.055l422.55-.28v28.18h-472.001v-28.138zm-49.396 47.9h472v56.878c0 74.724-48.788 142.484-118.822 165.333h-234.356c-70.034-22.849-118.822-90.608-118.822-165.333zm191.294 118.516c-5.522 0-10-4.477-10-10s4.478-10 10-10h34.706v-34.707c0-5.523 4.478-10 10-10s10 4.477 10 10v34.707h34.706c5.522 0 10 4.477 10 10s-4.478 10-10 10h-34.706v34.706c0 5.523-4.478 10-10 10s-10-4.477-10-10v-34.706zm44.706 82.201c50.841 0 92.202-41.361 92.202-92.202s-41.361-92.201-92.202-92.201-92.202 41.361-92.202 92.202 41.361 92.201 92.202 92.201zm0-164.403c39.813 0 72.202 32.39 72.202 72.202s-32.39 72.202-72.202 72.202-72.202-32.39-72.202-72.202 32.39-72.202 72.202-72.202z"/></svg>