<svg id="Layer_1" enable-background="new 0 0 512 512" viewBox="0 0 512 512" xmlns="http://www.w3.org/2000/svg"><path d="m232.48 429.77h-31.62c-1.96-20.46-3.04-36.32-3.92-49.23-3.6-52.85-4.44-54.57-44.69-92.37-10.74-10.09-24.11-22.64-41.37-39.81-8.32-8.07-20.66-9.05-30.16-3.05l-2.85-100.76c-.5-17.53-14.3-31.27-31.43-31.27-17.33 0-31.44 14.1-31.44 31.44v164.97c0 9.6 2.68 18.09 8.18 25.95 21.36 30.51 51.79 56.59 79.03 79.66v14.47h-30.34c-3.31 0-6 2.69-6 6v55.23c0 3.31 2.69 6 6 6h160.61c3.31 0 6-2.69 6-6v-55.23c0-3.31-2.69-6-6-6zm-199.47-101.02c-4.1-5.86-6.01-11.92-6.01-19.07v-164.96c0-10.72 8.72-19.44 19.44-19.44 10.59 0 19.13 8.61 19.44 19.6l3.43 121.18v.29c.1 6.57 2.74 12.69 7.44 17.23l39.69 38.46c2.38 2.31 6.18 2.25 8.48-.13 2.31-2.38 2.25-6.18-.13-8.48l-39.69-38.46c-2.39-2.31-3.73-5.44-3.79-8.8-.05-3.36 1.19-6.53 3.44-8.85 5.01-5.01 12.82-5.16 17.73-.4 17.32 17.23 30.76 29.85 41.56 39.99 19.08 17.92 28.66 26.92 33.53 36.97 4.84 10 5.7 22.53 7.4 47.47.87 12.75 1.93 28.35 3.84 48.42h-74.6v-17.26c0-1.76-.78-3.44-2.12-4.58-28.55-24.16-58.06-49.15-79.08-79.18zm193.47 156.25h-148.61v-43.23h148.61zm239.08-371.72c-17.13 0-30.94 13.73-31.43 31.27l-2.85 100.74c-9.47-5.99-21.83-5-30.22 3.12-17.2 17.11-30.57 29.66-41.31 39.75-40.25 37.8-41.08 39.53-44.69 92.37-.88 12.91-1.96 28.77-3.92 49.23h-31.62c-3.31 0-6 2.69-6 6v55.24c0 3.31 2.69 6 6 6h160.61c3.31 0 6-2.69 6-6v-55.23c0-3.31-2.69-6-6-6h-30.34v-14.47c27.24-23.07 57.67-49.16 79.03-79.66 5.5-7.86 8.18-16.35 8.18-25.95v-164.97c0-17.34-14.1-31.44-31.44-31.44zm-31.43 328.49v43.23h-148.61v-43.23zm50.87-132.09c0 7.15-1.91 13.21-6.01 19.07-21.02 30.03-50.53 55.02-79.08 79.19-1.35 1.14-2.12 2.81-2.12 4.58v17.26h-74.6c1.91-20.07 2.97-35.68 3.84-48.42 1.7-24.95 2.55-37.47 7.4-47.47 4.87-10.05 14.45-19.05 33.53-36.97 10.8-10.14 24.24-22.76 41.5-39.94 4.97-4.81 12.78-4.66 17.72.28 2.31 2.39 3.56 5.56 3.51 8.92s-1.4 6.49-3.79 8.8l-39.69 38.46c-2.38 2.31-2.44 6.1-.13 8.48s6.1 2.44 8.48.13l39.69-38.46c4.69-4.54 7.33-10.66 7.44-17.23 0-.1 0-.2 0-.29l3.43-121.18c.31-10.99 8.85-19.61 19.44-19.61 10.72 0 19.44 8.72 19.44 19.44zm-117.93-63.29c0-8.3-4.97-16.14-11.87-18.83l-58.88-29.86v-57.4l23.25 20.54c4.32 3.81 10.14 4.96 15.58 3.07l56.55-19.64c4.58-1.59 8.27-4.88 10.39-9.26s2.42-9.32.83-13.89c-1.59-4.58-4.88-8.27-9.26-10.39s-9.32-2.42-13.89-.83l-45.15 15.68-36.64-32.36c-3.57-3.16-7.8-4.76-12.57-4.76h-58.8c-4.77 0-8.99 1.6-12.57 4.76l-36.64 32.36-45.15-15.68c-4.58-1.59-9.51-1.3-13.89.83-4.38 2.12-7.67 5.81-9.26 10.39-3.29 9.48 1.74 19.86 11.22 23.15l56.55 19.64c5.44 1.89 11.27.74 15.58-3.07l23.25-20.54v57.4l-58.88 29.86c-6.9 2.69-11.87 10.53-11.87 18.83 0 11.58 9.42 21 21 21h84.08.03 96.03c11.56 0 20.98-9.42 20.98-21zm-182.58-94.54c-1.09.96-2.33 1.2-3.7.73l-56.55-19.64c-1.55-.54-2.8-1.66-3.53-3.16s-.83-3.17-.29-4.72 1.66-2.8 3.16-3.53c1.5-.72 3.17-.83 4.72-.29l48.47 16.83c2.05.71 4.32.26 5.94-1.17l39.27-34.68c1.37-1.21 2.8-1.75 4.62-1.75h58.8c1.83 0 3.25.54 4.62 1.75l39.27 34.68c1.62 1.43 3.89 1.88 5.94 1.17l48.47-16.83c1.55-.54 3.23-.44 4.72.29 1.5.73 2.62 1.98 3.16 3.53s.44 3.23-.29 4.72c-.73 1.5-1.98 2.62-3.53 3.16l-56.55 19.64c-1.37.47-2.62.23-3.7-.73l-33.23-29.35c-1.77-1.56-4.29-1.94-6.44-.97s-3.53 3.11-3.53 5.47v68.39h-56.62v-68.39c0-2.36-1.38-4.5-3.53-5.47s-4.67-.59-6.44.97zm65.46 73.54h-30.78c-3.31 0-6 2.69-6 6s2.69 6 6 6h30.78c4.96 0 9 4.04 9 9 0 4.94-4.02 8.98-8.96 9h-84.06c-4.96 0-9-4.04-9-9 0-3.95 2.55-7.05 4.31-7.68.24-.08.47-.19.7-.3l61.19-31.02h65.76l61.19 31.02c.23.11.46.21.7.3 1.76.63 4.31 3.72 4.31 7.68 0 4.96-4.04 9-9 9h-77.18c1.31-2.73 2.06-5.78 2.06-9-.02-11.58-9.44-21-21.02-21zm6.05-140.94c19.15 0 34.73-15.58 34.73-34.73 0-19.14-15.58-34.72-34.73-34.72s-34.73 15.58-34.73 34.73 15.58 34.72 34.73 34.72zm0-57.45c12.53 0 22.73 10.2 22.73 22.73s-10.2 22.73-22.73 22.73-22.73-10.2-22.73-22.73 10.2-22.73 22.73-22.73z"/></svg>