<svg id="Layer_1" enable-background="new 0 0 512 512" viewBox="0 0 512 512" xmlns="http://www.w3.org/2000/svg"><g><path d="m240.102 278.667c.928.515 1.928.761 2.913.761 2.072 0 4.087-1.087 5.174-3.022 5.246-9.348 7.565-19.283 6.884-29.544-.232-3.275-3.217-6.022-6.319-5.522-3.275.217-5.754 3.044-5.536 6.319.536 7.913-1.275 15.631-5.377 22.921-1.608 2.862-.594 6.478 2.261 8.087z"/><path d="m270.306 279.428c.986 0 1.986-.239 2.899-.754 2.87-1.609 3.884-5.225 2.275-8.087-4.102-7.312-5.913-15.029-5.377-22.928.217-3.275-2.261-6.102-5.536-6.319-3.246-.37-6.087 2.254-6.319 5.522-.681 10.239 1.638 20.174 6.884 29.537 1.087 1.942 3.101 3.029 5.174 3.029z"/><path d="m493.033 418.807-3.174-9.536c-3.029-7.616-9.609-13.254-17.609-15.087l-5.348-1.217c1.377-1.348 2.493-2.971 3.232-4.797 1.551-3.775 1.42-8.044-.377-11.71-2.957-6.065-9.87-9.261-16.392-7.587l-21.044 5.362-41.319-52.196c-6.928-8.754-10.855-19.725-11.087-30.884l-1.71-79.255c-1-9.362-4.696-16.638-10.986-21.616-8.768-6.957-19.841-6.942-23.551-6.725l-53.551-13.079c-2.526-4.361-3.28-11.288-3.272-16.064 2.409-3.24 4.612-7.091 6.501-11.74 4.846-4.951 9.552-11.68 12.727-16.647 5.188-8.167 8.826-16.623 10.783-25.131 7.197-31.059-5.771-58.266-32.394-70.713.005-.214.06-.414.06-.629 0-15.725-12.797-28.515-28.522-28.515s-28.537 12.79-28.537 28.515c0 .218.054.42.06.637-26.606 12.434-39.578 39.636-32.394 70.698 1.971 8.536 5.609 16.993 10.812 25.145 4.683 7.358 9.048 12.982 13.03 16.949 2.035 4.491 4.355 8.196 6.698 11.219.023 5.637-.973 12.172-3.249 16.141l-54.102 13.214c-3.71-.217-14.783-.232-23.551 6.725-6.29 4.978-9.986 12.254-11.029 22.131l-1.652 78.74c-.232 11.152-4.174 22.116-11.102 30.884l-41.304 52.194-21.044-5.355c-6.594-1.71-13.435 1.514-16.406 7.587-1.797 3.681-1.928 7.957-.362 11.732.754 1.812 1.855 3.428 3.232 4.768l-5.348 1.217c-8.015 1.833-14.594 7.471-17.739 15.406l-3.058 9.239c-1.015 3.08-.304 6.507 1.841 8.935 1.768 1.993 4.232 3.08 6.797 3.08.609 0 1.232-.065 1.841-.188l31.485-6.264c-2.843 2.454-5.482 5.152-7.63 8.278-4.102 5.993-6.275 12.964-6.275 20.16 0 14.247 8.406 27.037 21.406 32.595 7.377 3.138 13.754 4.761 22.218 4.761.505 0 1.123-.075 1.644-.087-.148 2.07-.158 4.164.37 6.232 2.232 8.732 10.377 14.631 19.247 14.631 1.493 0 3-.167 4.507-.507 12.681-2.906 32.899-7.587 55.088-12.783 35.311-8.285 200.749-.182 207.711.138.016 0 .029.014.045.014.015 0 .029-.011.044-.011.06.003.207.01.231.011 26.319-1.217 55.696-4.159 71.305-23.732 13.797-17.363 11.377-35.095 2.855-44.979-1.52-1.757-3.477-3.536-5.683-5.336l34.539 6.88c3.246.659 6.507-.471 8.667-2.913 2.159-2.435 2.854-5.863 1.825-8.935zm-157.495-225.018c-2.016 6.375-3.453 12.915-4.962 19.431-.091.15-.236.248-.313.409-.149.311-2.39 5-5.486 13.165-2.479-5.271-5.969-10.453-10.964-15.296-1.048-2.239-1.939-12.103-2.236-23.56zm-135.375 96.163c15.446 5.811 34.69 9.2 54.852 9.2 19.804 0 38.174-3.14 53.282-8.726-3.15 20.49-4.388 40.819-3.411 60.668.305 6.374 1.284 12.035 2.748 17.182-34.823 7.425-73.395 7.06-107.791-1.018 1.184-5.066 1.62-9.519 1.868-12.186 1.898-21.145 1.28-43.012-1.548-65.12zm55.838 95.658c19.339 0 38.228-2.135 56.292-6.17 1.228 2.125 2.889 3.797 4.425 5.599-21.753 2.8-42.731 14.113-56.231 30.366-4.592-.77-9.44-1.515-14.56-2.213-13.189-14.997-33.159-25.546-53.589-28.586 1.259-1.832 2.17-4.053 3.185-6.161 19.273 4.685 39.566 7.165 60.478 7.165zm70.291 10.602c1.913-.036 4 .181 5.942.464.174.026.336-.037.509-.027.092.034.152.102.245.136l21.233 5.085c-5.345-.304-9.649-.716-12.001-1.136-21.508-3.87-33.522-2.551-44.392 16.276l-1.014 1.754c-1.072 2.058-3.493 3.116-5.812 2.616-4.224-.931-9.977-2.167-16.722-3.482 13.396-12.954 33.119-21.429 52.012-21.686zm10.13-10.775c-18.319-6.761-19.348-27.95-19.696-35.124-1.063-21.673.549-44.155 4.703-66.833.025-.045.085-.063.109-.11.363-.706 1.178-2.393 2.14-4.711.261 9.517 1.045 19.015 2.368 28.429l.87 6.333c.522 3.855 1.058 7.739 1.638 11.529 2.58 16.464 11.391 31.029 24.841 41.015l47.521 35.265c-1.784-.493-3.447-1.217-5.259-1.649zm-80.421-372.527c7.811 0 14.08 5.529 15.86 12.8-10.471-2.588-21.282-2.588-31.735.006 1.778-7.275 8.049-12.806 15.875-12.806zm-42.834 101.529c-2.869-5.357-5.212-10.772-6.471-16.224-6.58-28.442 6.536-52.138 33.406-60.356 10.377-3.174 21.406-3.167 31.783-.007 26.884 8.225 40.001 31.913 33.406 60.37-1.238 5.344-3.526 10.67-6.317 15.944.489-23.872-14.071-42.597-43.501-55.662-1.882-3.77-.697-9.523.021-12.015.899-3.152-.928-6.442-4.073-7.348-3.188-.877-6.435.928-7.348 4.073-1.46 5.11-2.429 11.842-.442 17.969-9.353 7.139-30.024 26.047-30.464 53.256zm11.834 3.233c-1.377-24.566 19.565-42.377 26.913-47.841 25.45 11.58 36.972 27.044 35.218 47.189-2.986 34.334-20.522 40.674-27.928 41.805-1.348.203-2.246.217-3.232.254-3.275.42-9.275-1.08-15.478-6.319-5.305-4.493-14.377-15.03-15.493-35.088zm55.294 59.702c-.331 5.663-3.001 25.268-24.076 37.799-21.091-12.583-23.72-32.277-24.038-37.868 2.417-3.807 3.814-8.349 4.552-12.645 5.957 4.034 12.331 6.368 17.646 6.368.71 0 1.391-.036 2.058-.116 0-.007 1.739.08 4.551-.348h.014c3.666-.562 9.15-2.066 14.823-5.662.734 4.242 2.11 8.714 4.47 12.472zm-70.413 8.255 11.003-2.688c1.739 10.971 8.261 31.486 32.566 44.29 1.725.913 3.797.913 5.522 0 24.261-12.747 30.841-33.167 32.609-44.175l8.074 1.971c.394 29.065 3.732 32.689 5.23 34.145 21.058 20.573 10.812 48.464 6.899 57.102-14.609 7.007-35.145 11.007-56.769 11.007-21.913 0-42.725-4.036-57.508-11.102-3.246-6.906-14.812-35.805 6.884-57.008 3.377-3.295 5.197-14.635 5.49-33.542zm-11.963 2.921c-.337 10.703-1.243 20.542-1.817 22.131-4.889 4.775-8.325 9.848-10.852 14.995-.787-2.203-1.493-4.107-1.975-5.321l-.034.012c-1.806-8.969-4.025-17.857-6.778-26.577zm-8.064 165.727c-.29 3.21-.841 9.189-3.029 15.384-2.362 6.667-6 11.747-10.812 15.109-1.899 1.326-4.029 2.413-6.348 3.246-.261.036-.507.094-.754.167l-67.596 20.008c2.577-1.699 5.15-3.409 7.552-5.32l49.725-36.906c13.449-9.971 22.261-24.537 24.841-41.015.638-4.102 1.203-8.312 1.768-12.464l.739-5.406c.977-6.959 1.354-13.993 1.751-21.018 3.364 23.095 4.168 45.954 2.163 68.215zm-158.161 63.827 1.478-4.457c1.58-3.978 5.029-6.928 9.218-7.884l22.957-5.246c2.58-.594 4.464-2.819 4.609-5.457.145-2.645-1.464-5.065-3.971-5.935l-11.696-4.102c-.899-.312-1.29-.986-1.449-1.362-.159-.377-.348-1.145.058-2 .42-.841 1.275-1.362 2.188-1.362.203 0 .406.029.609.08l24.783 6.312c2.203.572 4.652-.225 6.116-2.072l43.696-55.218c8.536-10.783 13.391-24.276 13.681-38.001l1.609-78.226c.652-6.051 2.841-10.609 6.507-13.536 3.986-3.196 9.058-4.051 12.42-4.232 11.493 35.319 14.841 73.334 9.667 110.03l-.739 5.457c-.551 4.08-1.101 8.21-1.739 12.232-2.087 13.377-9.247 25.203-20.174 33.305l-49.885 37.03c-11.319 9.007-24.797 15.399-38.856 18.457zm41.392 56.399c-8.623-3.688-14.189-12.189-14.189-21.674 0-4.79 1.449-9.442 4.188-13.442 4.159-6.051 10.319-10.536 17.348-12.631l90.885-26.899c.377-.051.754-.13 1.13-.254 3.029-.977 5.683-2.495 8.266-4.075l.647-.012c15.701.217 31.88 6.006 44.632 15.401-40.107-3.576-73.207-.362-98.589 9.606l-6.725-1.051c-3-.471-6.261 1.688-6.783 4.942-.507 3.239 1.71 6.275 4.957 6.783l2.271.355c-1.366 9.031-2.425 26.071 4.44 41.516-33.88 7.186-41.317 6.179-52.478 1.435zm302.778 11.285c-25.709-1.231-172.208-7.848-207.082.324-22.174 5.188-42.363 9.87-55.03 12.768-4.217.949-8.565-1.478-9.594-5.486-.38-1.493-.175-2.991.328-4.4 7.966-1.106 17.53-2.963 30.281-5.818 6.029-.326 148.219-8.246 213.22-34.037 11.939-4.739 20.993-8.112 29.528-10.7 3.703 8.382 9.983 28.404-1.651 47.349zm3.197-60.191c-10.478 2.855-20.928 6.746-35.45 12.507-57.138 22.672-180.685 31.412-205.681 33.038-8.039-14.71-5.933-33.098-4.668-40.037 26.989-10.187 63.557-12.422 108.971-6.451 6.971.928 13.551 1.949 19.537 2.993 11.261 1.964 20.522 3.971 26.682 5.326 7.667 1.652 15.392-1.928 19.522-9.797.029-.043.739-1.254.768-1.297 6.116-10.602 10.986-13.123 31.392-9.464 7.826 1.399 28.986 2.341 45.856 1.464 2.725 0 4.928 2.21 4.928 4.928 0 2.29-1.594 4.304-3.841 4.804-2.726.623-5.364 1.254-8.016 1.986zm62.479 41.094c-9.884 12.4-28.005 16.836-51.824 18.655 8.897-20.028 3.525-39.818-.612-50.005.195-.044.385-.099.581-.143 7.594-1.696 13.116-8.587 13.116-16.392 0-1.732-.504-3.313-.999-4.887 9.739 3.003 19.108 6.678 27.623 11.59 7.203 4.152 12.348 7.978 15.276 11.362 4.926 5.719 7.056 16.965-3.161 29.82zm7.768-54.761c-14.145-3.065-27.609-9.457-39.116-18.594l-49.725-36.906c-10.928-8.116-18.087-19.942-20.174-33.305-.58-3.71-1.101-7.515-1.609-11.29l-.87-6.406c-5.174-36.696-1.826-74.711 9.681-110.023 3.348.181 8.435 1.043 12.406 4.232 3.667 2.928 5.855 7.486 6.464 13.022l1.667 78.74c.29 13.739 5.145 27.232 13.667 38.001l43.711 55.218c1.449 1.848 3.884 2.63 6.116 2.072l24.768-6.312c1.203-.319 2.29.239 2.797 1.29.42.855.217 1.609.058 1.993-.145.377-.536 1.058-1.435 1.37l-11.696 4.094c-2.507.87-4.116 3.29-3.971 5.935.145 2.638 2.029 4.862 4.609 5.457l22.957 5.246c4.188.957 7.623 3.906 9.087 7.565l1.58 4.775z"/><path d="m253.755 361.538c3.275 0 5.942-2.659 5.942-5.935v-3.841c0-3.275-2.667-5.935-5.942-5.935s-5.942 2.659-5.942 5.935v3.841c0 3.275 2.666 5.935 5.942 5.935z"/><path d="m244.755 130.868c-2.304 2.333-2.29 6.087.043 8.391 3.13 3.094 7.217 4.638 11.305 4.638 4.116 0 8.246-1.572 11.377-4.725 2.304-2.326 2.29-6.087-.029-8.391-2.333-2.319-6.102-2.29-8.406.029-1.623 1.623-4.275 1.623-5.899.014-2.348-2.318-6.102-2.297-8.391.044z"/><path d="m268.277 108.317c3.275 0 5.942-2.659 5.942-5.935v-1.333c0-3.275-2.667-5.268-5.942-5.268s-5.942 3.326-5.942 6.602c-.001 3.274 2.666 5.934 5.942 5.934z"/><path d="m244.044 108.317c3.275 0 5.942-2.659 5.942-5.935v-1.333c0-3.275-2.667-5.268-5.942-5.268s-5.942 3.326-5.942 6.602c0 3.274 2.667 5.934 5.942 5.934z"/></g></svg>